<?xml version="1.0" encoding="UTF-8"?><svg id="Calque_2" xmlns="http://www.w3.org/2000/svg" viewBox="0 0 104.83 104.83"><defs><style>.cls-1{fill:#273472;stroke-width:0px;}.cls-2{fill:none;stroke:#e15729;stroke-miterlimit:10;stroke-width:15px;}</style></defs><g id="Calque_1-2"><polyline class="cls-2" points="52.42 7.5 97.33 7.5 97.33 52.4"/><polyline class="cls-2" points="52.42 97.33 7.5 97.33 7.5 52.42"/><path class="cls-1" d="m27.79,73.22h4.54l10.37-41.62h-4.54l1.08-4.32h21.02c3.12,0,5.81.47,8.06,1.4,2.26.94,4.1,2.21,5.54,3.82,1.44,1.61,2.51,3.48,3.2,5.62.7,2.14,1.04,4.4,1.04,6.8s-.28,4.96-.83,7.52c-.55,2.57-1.37,5.06-2.45,7.49-1.08,2.42-2.44,4.7-4.07,6.84-1.63,2.14-3.54,4-5.72,5.58-2.18,1.58-4.63,2.84-7.34,3.78-2.71.94-5.68,1.4-8.89,1.4h-22.1l1.08-4.32Zm15.62-.29h3.82c4.51,0,8.04-1.24,10.58-3.71,2.54-2.47,4.49-6.37,5.83-11.7.86-3.5,1.55-6.3,2.05-8.39.5-2.09.88-3.74,1.12-4.97.24-1.22.4-2.16.47-2.81.07-.65.11-1.28.11-1.91,0-2.78-.79-4.75-2.38-5.9-1.58-1.15-3.89-1.73-6.91-1.73h-4.39l-10.3,41.11Z"/></g></svg>